# xmcd
#
# Track frame offsets: 
#        150
#        21872
#        58019
#        83253
#        110541
#        119502
#        136573
#        159788
#        186020
#
# Disc length: 2678 seconds
#
# Revision: 2
# Processed by: cddbd v1.5.2PL0 Copyright (c) Steve Scherf et al.
# Submitted via: ExactAudioCopy v0.95b3
#
DISCID=620a7409
DTITLE=Albert Collins - Deep Freeze CD1 - Live at the Fillmore West 19
DTITLE=69
DYEAR=2005
DGENRE=Blues
TTITLE0=Introduction instrumental
TTITLE1=How blue can you get
TTITLE2=Thaw out
TTITLE3=So tired
TTITLE4=Funky
TTITLE5=Deep freeze
TTITLE6=Baby what do you want me to do ?
TTITLE7=Mustang Sally
TTITLE8=Backstroke
EXTD=YEAR: 2000
EXTT0=
EXTT1=
EXTT2=
EXTT3=
EXTT4=
EXTT5=
EXTT6=
EXTT7=
EXTT8=
PLAYORDER=
